<?xml version="1.0" encoding="utf-8"?>
<!-- Generator: Adobe Illustrator 27.0.1, SVG Export Plug-In . SVG Version: 6.00 Build 0)  -->
<svg version="1.1" xmlns="http://www.w3.org/2000/svg" xmlns:xlink="http://www.w3.org/1999/xlink" x="0px" y="0px"
	 viewBox="0 0 70 130" style="enable-background:new 0 0 70 130;" xml:space="preserve">
<style type="text/css">
	.st0{stroke:#A3A2A2;stroke-miterlimit:10;}
	.st1{fill:#C6C6C6;}
	.st2{fill:#6B6565;}
	.st3{fill:#FFFFFF;filter:url(#Adobe_OpacityMaskFilter);}
	
		.st4{mask:url(#ServiceBot__Eyelid_00000061451418575618702530000011419039851722529964_);fill:#383838;stroke:#B5B4B4;stroke-miterlimit:10;}
</style>
<g id="Ebene_1">
	<g id="ServiceBot__Head">
		<path id="ServiceBot__Head--Container" class="st0" d="M36.4,1.1l32.5,32.5c0.8,0.8,0.8,2,0,2.8L36.4,68.9c-0.8,0.8-2,0.8-2.8,0
			L1.1,36.4c-0.8-0.8-0.8-2,0-2.8L33.6,1.1C34.4,0.3,35.6,0.3,36.4,1.1z"/>
		<g id="ServiceBot__Eye">
			<circle id="ServiceBot__Eye--Sclera" class="st1" cx="35" cy="30" r="15"/>
			<circle id="ServiceBot__Eye--iris" class="st2" cx="35" cy="30" r="7.5"/>
			<circle id="ServiceBot__Eye--pupil" cx="35" cy="30" r="2.5"/>
			<defs>
				<filter id="Adobe_OpacityMaskFilter" filterUnits="userSpaceOnUse" x="19.5" y="14.5" width="31" height="31">
					<feColorMatrix  type="matrix" values="1 0 0 0 0  0 1 0 0 0  0 0 1 0 0  0 0 0 1 0"/>
				</filter>
			</defs>
			
				<mask maskUnits="userSpaceOnUse" x="19.5" y="14.5" width="31" height="31" id="ServiceBot__Eyelid_00000061451418575618702530000011419039851722529964_">
				<circle class="st3" cx="35" cy="30" r="15"/>
				<ellipse id="ServiceBot__EyelidGap_00000052102824797269262340000005284500047868618915_" cx="35" cy="30" rx="15" ry="8"/>
			</mask>
			<circle id="ServiceBot__Eyelid--Skin" class="st4" cx="35" cy="30" r="15"/>
		</g>
	</g>
	<g id="ServiceBot__Body">
		<path id="ServiceBot__Body--Container" d="M12,70h46c1.1,0,2,0.9,2,2v46c0,1.1-0.9,2-2,2H12c-1.1,0-2-0.9-2-2V72
			C10,70.9,10.9,70,12,70z"/>
	</g>
</g>
<g id="NEW_x5F_GAP">
	<g id="lines">
	</g>
	<path id="Bottom" d="M50,30c0,0-1,13-15,13S20,30,20,30"/>
	<path id="Top" d="M20,30c0,0,1-15,15-15s15,15,15,15H20z"/>
</g>
</svg>
